<svg width="640" height="320" viewBox="0 0 640 320" fill="none" xmlns="http://www.w3.org/2000/svg" role="img" aria-label="Butr logo concept 6">
  <rect width="640" height="320" rx="32" fill="#FBF7EF"/>
  <ellipse cx="320" cy="228" rx="178" ry="30" fill="#E7DECF" opacity="0.68"/>
  <path d="M176 200C176 183 189 170 206 170H434C451 170 464 183 464 200V211C464 226 452 238 437 238H203C188 238 176 226 176 211V200Z" fill="#FFFDF8"/>
  <path d="M190 199C190 191 196 185 204 185H436C444 185 450 191 450 199V210C450 218 444 224 436 224H204C196 224 190 218 190 210V199Z" fill="#F7F4ED"/>
  <path d="M204 173H436C454 173 468 187 468 205C468 223 454 237 436 237H204C186 237 172 223 172 205C172 187 186 173 204 173Z" fill="#FFD84D"/>
  <path d="M204 173H436C454 173 468 187 468 205C468 223 454 237 436 237H204C186 237 172 223 172 205C172 187 186 173 204 173Z" stroke="#C89A20" stroke-opacity="0.22" stroke-width="2"/>
  <path d="M202 186C246 179 282 176 320 176C358 176 394 179 438 186" stroke="#FFF8D2" stroke-width="9" stroke-linecap="round"/>
  <path d="M202 206C246 200 282 197 320 197C358 197 394 200 438 206" stroke="#FFF2B8" stroke-opacity="0.84" stroke-width="8" stroke-linecap="round"/>
  <path d="M202 224C246 219 282 216 320 216C358 216 394 219 438 224" stroke="#C69318" stroke-opacity="0.24" stroke-width="7" stroke-linecap="round"/>
  <path d="M258 173C261 166 268 162 277 162H363C372 162 379 166 382 173" stroke="#FFFBEA" stroke-opacity="0.86" stroke-width="7" stroke-linecap="round"/>
</svg>

