<svg width="960" height="720" viewBox="0 0 960 720" fill="none" xmlns="http://www.w3.org/2000/svg" role="img" aria-label="Butr dish concept 1">
  <rect width="960" height="720" fill="#FFFFFF"/>
  <ellipse cx="484" cy="508" rx="292" ry="58" fill="#D2D8DA"/>
  <path d="M192 382C192 342 225 310 266 310H686C727 310 760 342 760 382V425C760 462 730 492 692 492H260C222 492 192 462 192 425V382Z" fill="#FCF4D7" stroke="#2D241D" stroke-width="16" stroke-linejoin="round"/>
  <ellipse cx="484" cy="390" rx="252" ry="62" fill="#E9B84A" stroke="#2D241D" stroke-width="12"/>
  <path d="M228 385C322 340 645 340 732 385" stroke="#FFF6C6" stroke-width="16" stroke-linecap="round"/>
  <path d="M244 417C340 390 634 390 718 417" stroke="#DDAA22" stroke-opacity="0.34" stroke-width="14" stroke-linecap="round"/>
  <path d="M286 258C286 226 311 200 343 200H586C617 200 642 226 642 258V392C642 424 617 450 586 450H343C311 450 286 424 286 392V258Z" fill="#FFD84D" stroke="#2D241D" stroke-width="16" stroke-linejoin="round"/>
  <path d="M304 244C347 225 416 215 486 215C546 215 589 223 632 237" stroke="#FFF8C8" stroke-width="14" stroke-linecap="round"/>
  <path d="M308 290C362 274 420 266 488 266C549 266 598 273 616 280" stroke="#FFF0AD" stroke-width="10" stroke-linecap="round"/>
  <path d="M343 347C407 338 462 334 509 336C552 338 591 345 618 353" stroke="#D69F17" stroke-opacity="0.24" stroke-width="9" stroke-linecap="round"/>
  <path d="M600 231L630 213" stroke="#2D241D" stroke-width="10" stroke-linecap="round"/>
  <path d="M612 250L640 231" stroke="#2D241D" stroke-width="10" stroke-linecap="round"/>
</svg>

