<svg width="960" height="720" viewBox="0 0 960 720" fill="none" xmlns="http://www.w3.org/2000/svg" role="img" aria-label="Butr dish concept 2">
  <rect width="960" height="720" fill="#FFFFFF"/>
  <ellipse cx="480" cy="512" rx="306" ry="60" fill="#C9D1D5"/>
  <path d="M164 390C164 346 201 310 245 310H715C759 310 796 346 796 390V428C796 464 767 494 730 494H230C193 494 164 464 164 428V390Z" fill="#FFF8DE" stroke="#2B241B" stroke-width="14" stroke-linejoin="round"/>
  <ellipse cx="479" cy="392" rx="274" ry="68" fill="#E0AE39" stroke="#2B241B" stroke-width="12"/>
  <path d="M224 386C318 336 642 336 736 386" stroke="#FFF7C8" stroke-width="14" stroke-linecap="round"/>
  <path d="M238 418C337 393 633 393 723 418" stroke="#D6A01C" stroke-opacity="0.28" stroke-width="12" stroke-linecap="round"/>
  <path d="M318 214C318 182 344 156 376 156H560C592 156 618 182 618 214V396C618 428 592 454 560 454H376C344 454 318 428 318 396V214Z" fill="#FFD84D" stroke="#2B241B" stroke-width="16" stroke-linejoin="round"/>
  <path d="M336 202C392 184 449 176 504 177C556 178 586 185 607 192" stroke="#FFF9D3" stroke-width="12" stroke-linecap="round"/>
  <path d="M336 252C392 236 452 230 503 231C550 232 582 236 603 241" stroke="#FFF1B0" stroke-width="10" stroke-linecap="round"/>
  <path d="M336 308C404 296 465 293 523 294C565 295 594 300 604 303" stroke="#D7A21E" stroke-opacity="0.26" stroke-width="10" stroke-linecap="round"/>
  <path d="M565 170L598 150" stroke="#2B241B" stroke-width="10" stroke-linecap="round"/>
  <path d="M585 190L612 173" stroke="#2B241B" stroke-width="10" stroke-linecap="round"/>
</svg>

