<svg width="960" height="720" viewBox="0 0 960 720" fill="none" xmlns="http://www.w3.org/2000/svg" role="img" aria-label="Butr dish concept 3">
  <rect width="960" height="720" fill="#FFFFFF"/>
  <ellipse cx="480" cy="505" rx="298" ry="58" fill="#D4DADF"/>
  <path d="M188 387C188 349 219 318 258 318H702C741 318 772 349 772 387V424C772 460 743 490 706 490H254C217 490 188 460 188 424V387Z" fill="#FFF9E6" stroke="#2B241B" stroke-width="14" stroke-linejoin="round"/>
  <ellipse cx="479" cy="390" rx="258" ry="63" fill="#ECC15B" stroke="#2B241B" stroke-width="12"/>
  <path d="M226 386C318 350 643 350 734 386" stroke="#FFF8C7" stroke-width="15" stroke-linecap="round"/>
  <path d="M242 417C337 395 633 395 719 417" stroke="#D69F17" stroke-opacity="0.28" stroke-width="11" stroke-linecap="round"/>
  <path d="M292 232C292 200 318 174 350 174H564C596 174 622 200 622 232V388C622 420 596 446 564 446H350C318 446 292 420 292 388V232Z" fill="#FFD84D" stroke="#2B241B" stroke-width="16" stroke-linejoin="round"/>
  <path d="M309 220C360 202 416 194 477 194C533 194 590 202 609 210" stroke="#FFF9D0" stroke-width="12" stroke-linecap="round"/>
  <path d="M309 268C367 251 424 245 479 245C533 245 588 250 608 255" stroke="#FFF0AC" stroke-width="10" stroke-linecap="round"/>
  <path d="M309 324C377 314 435 311 489 312C548 314 586 318 610 322" stroke="#D6A11B" stroke-opacity="0.24" stroke-width="10" stroke-linecap="round"/>
  <path d="M612 224L645 205" stroke="#2B241B" stroke-width="10" stroke-linecap="round"/>
  <path d="M618 246L648 227" stroke="#2B241B" stroke-width="10" stroke-linecap="round"/>
</svg>

