<svg width="1024" height="1024" viewBox="0 0 1024 1024" fill="none" xmlns="http://www.w3.org/2000/svg" role="img" aria-label="Butr logo fresh concept 2">
  <defs>
    <radialGradient id="bg" cx="0" cy="0" r="1" gradientUnits="userSpaceOnUse" gradientTransform="translate(512 356) rotate(90) scale(520 520)">
      <stop stop-color="#7E7A72"/>
      <stop offset="1" stop-color="#5E5A52"/>
    </radialGradient>
    <linearGradient id="dishTop2" x1="260" y1="486" x2="764" y2="486" gradientUnits="userSpaceOnUse">
      <stop stop-color="#FFF8DE"/>
      <stop offset="1" stop-color="#F0E1B0"/>
    </linearGradient>
    <linearGradient id="dishBottom2" x1="262" y1="600" x2="760" y2="600" gradientUnits="userSpaceOnUse">
      <stop stop-color="#BCD0E0"/>
      <stop offset="1" stop-color="#9FB6C8"/>
    </linearGradient>
    <linearGradient id="butter2" x1="360" y1="300" x2="650" y2="628" gradientUnits="userSpaceOnUse">
      <stop stop-color="#FFF25F"/>
      <stop offset="0.56" stop-color="#FFD84C"/>
      <stop offset="1" stop-color="#EFC22C"/>
    </linearGradient>
    <filter id="shadow2" x="168" y="414" width="688" height="286" filterUnits="userSpaceOnUse" color-interpolation-filters="sRGB">
      <feDropShadow dx="0" dy="20" stdDeviation="18" flood-color="#17130F" flood-opacity="0.42"/>
    </filter>
  </defs>
  <rect width="1024" height="1024" fill="url(#bg)"/>
  <ellipse cx="510" cy="734" rx="328" ry="52" fill="#1F1813" fill-opacity="0.34"/>
  <g filter="url(#shadow2)">
    <path d="M208 496C208 447 248 407 297 407H727C776 407 816 447 816 496V523C816 568 780 604 735 604H289C244 604 208 568 208 523V496Z" fill="url(#dishTop2)" stroke="#2A231C" stroke-width="16" stroke-linejoin="round"/>
    <path d="M232 526C232 505 249 488 270 488H752C773 488 790 505 790 526V550C790 582 764 608 732 608H292C260 608 234 582 234 550V526H232Z" fill="url(#dishBottom2)" stroke="#2A231C" stroke-width="16" stroke-linejoin="round"/>
    <path d="M258 494C332 451 690 451 764 494" stroke="#FFFDF0" stroke-width="12" stroke-linecap="round"/>
    <path d="M286 523C358 495 666 495 738 523" stroke="#EBD79B" stroke-opacity="0.7" stroke-width="10" stroke-linecap="round"/>
    <path d="M312 392C312 348 348 312 392 312H632C676 312 712 348 712 392V528C712 572 676 608 632 608H392C348 608 312 572 312 528V392Z" fill="url(#butter2)" stroke="#2A231C" stroke-width="16" stroke-linejoin="round"/>
    <path d="M330 375C376 355 442 345 512 344C578 343 628 351 668 368" stroke="#FFF7BC" stroke-width="12" stroke-linecap="round"/>
    <path d="M338 430C394 413 453 407 514 406C573 405 627 411 664 422" stroke="#FFF0A4" stroke-width="10" stroke-linecap="round"/>
    <path d="M340 484C404 470 460 467 520 468C582 469 632 475 668 486" stroke="#D8A31D" stroke-opacity="0.24" stroke-width="10" stroke-linecap="round"/>
    <path d="M662 362L694 344" stroke="#2A231C" stroke-width="9" stroke-linecap="round"/>
    <path d="M350 606C360 594 376 588 394 588H630C648 588 664 594 674 606C680 616 672 630 658 630H366C352 630 344 616 350 606Z" fill="#F3C84A" stroke="#2A231C" stroke-width="10" stroke-linejoin="round"/>
    <path d="M606 608C614 610 620 616 620 624C620 634 612 642 602 642C592 642 584 634 584 624C584 616 590 610 598 608" fill="#FFF7D4" stroke="#2A231C" stroke-width="8"/>
  </g>
</svg>

