<svg width="1024" height="1024" viewBox="0 0 1024 1024" fill="none" xmlns="http://www.w3.org/2000/svg" role="img" aria-label="Butr logo fresh concept 1">
  <defs>
    <radialGradient id="bgGlow" cx="0" cy="0" r="1" gradientUnits="userSpaceOnUse" gradientTransform="translate(512 360) rotate(90) scale(520 520)">
      <stop stop-color="#8E8A82"/>
      <stop offset="1" stop-color="#6F6A61"/>
    </radialGradient>
    <linearGradient id="dishTop" x1="248" y1="482" x2="770" y2="482" gradientUnits="userSpaceOnUse">
      <stop stop-color="#FFF7DB"/>
      <stop offset="1" stop-color="#F3E7B9"/>
    </linearGradient>
    <linearGradient id="dishBottom" x1="260" y1="590" x2="766" y2="590" gradientUnits="userSpaceOnUse">
      <stop stop-color="#C7D8E4"/>
      <stop offset="1" stop-color="#AFC0CF"/>
    </linearGradient>
    <linearGradient id="butter" x1="368" y1="316" x2="646" y2="644" gradientUnits="userSpaceOnUse">
      <stop stop-color="#FFF36A"/>
      <stop offset="0.55" stop-color="#FFE34E"/>
      <stop offset="1" stop-color="#F1C832"/>
    </linearGradient>
    <filter id="shadow" x="180" y="420" width="664" height="264" filterUnits="userSpaceOnUse" color-interpolation-filters="sRGB">
      <feDropShadow dx="0" dy="18" stdDeviation="16" flood-color="#1A1713" flood-opacity="0.44"/>
    </filter>
  </defs>
  <rect width="1024" height="1024" fill="url(#bgGlow)"/>
  <ellipse cx="506" cy="736" rx="322" ry="50" fill="#2B211B" fill-opacity="0.36"/>
  <g filter="url(#shadow)">
    <path d="M214 486C214 441 251 404 296 404H734C779 404 816 441 816 486V518C816 561 781 596 738 596H284C241 596 206 561 206 518V494C206 489 210 486 214 486Z" fill="url(#dishTop)" stroke="#2A231C" stroke-width="16" stroke-linejoin="round"/>
    <path d="M236 518C236 500 251 485 269 485H755C773 485 788 500 788 518V548C788 580 762 606 730 606H294C262 606 236 580 236 548V518Z" fill="url(#dishBottom)" stroke="#2A231C" stroke-width="16" stroke-linejoin="round"/>
    <path d="M262 494C334 453 690 453 762 494" stroke="#FFFDF0" stroke-width="12" stroke-linecap="round"/>
    <path d="M282 520C354 492 668 492 742 520" stroke="#F4E39A" stroke-opacity="0.72" stroke-width="10" stroke-linecap="round"/>
    <path d="M316 388C316 345 351 310 394 310H606C649 310 684 345 684 388V530C684 573 649 608 606 608H394C351 608 316 573 316 530V388Z" fill="url(#butter)" stroke="#2A231C" stroke-width="16" stroke-linejoin="round"/>
    <path d="M336 370C380 350 439 338 512 336C577 334 624 341 664 356" stroke="#FFF8BF" stroke-width="12" stroke-linecap="round"/>
    <path d="M344 420C398 404 454 398 515 397C579 396 631 402 666 412" stroke="#FFF0A5" stroke-width="10" stroke-linecap="round"/>
    <path d="M346 474C407 460 463 456 522 457C580 458 633 465 668 476" stroke="#D7A31D" stroke-opacity="0.22" stroke-width="10" stroke-linecap="round"/>
    <path d="M648 352L678 334" stroke="#2A231C" stroke-width="9" stroke-linecap="round"/>
    <path d="M368 604C376 592 392 586 410 586H588C606 586 622 592 630 604C636 614 627 628 613 628H385C371 628 362 614 368 604Z" fill="#F1C84B" stroke="#2A231C" stroke-width="10" stroke-linejoin="round"/>
    <path d="M602 608C610 610 615 616 615 623C615 633 607 641 597 641C588 641 580 633 580 623C580 616 585 610 593 608" fill="#FFF8D4" stroke="#2A231C" stroke-width="8"/>
  </g>
</svg>

