<svg width="1024" height="1024" viewBox="0 0 1024 1024" fill="none" xmlns="http://www.w3.org/2000/svg" role="img" aria-label="Butr logo refined concept 5">
  <rect width="1024" height="1024" fill="#FFFFFF"/>
  <ellipse cx="510" cy="684" rx="326" ry="56" fill="#D7D7D7"/>
  <path d="M166 528C166 468 215 420 275 420H749C809 420 858 468 858 528V604C858 659 814 703 760 703H264C210 703 166 659 166 604V528Z" fill="#FBF0C7" stroke="#241E18" stroke-width="18" stroke-linejoin="round"/>
  <path d="M204 595C263 614 347 627 438 632C544 637 634 633 718 622C759 617 794 610 821 602" stroke="#E2AE41" stroke-opacity="0.38" stroke-width="16" stroke-linecap="round"/>
  <path d="M224 626C296 651 401 665 516 665C627 665 720 653 776 631" stroke="#FFF7CF" stroke-width="14" stroke-linecap="round"/>
  <path d="M276 442C276 410 302 384 334 384H676C708 384 734 410 734 442V590C734 622 708 648 676 648H334C302 648 276 622 276 590V442Z" fill="#FFE157" stroke="#241E18" stroke-width="18" stroke-linejoin="round"/>
  <path d="M294 430C350 407 409 397 478 393C557 389 631 400 708 423" stroke="#FFF7C7" stroke-width="14" stroke-linecap="round"/>
  <path d="M302 494C361 478 423 472 488 471C559 470 619 479 694 499" stroke="#FFF0A5" stroke-width="11" stroke-linecap="round"/>
  <path d="M304 556C370 543 431 541 497 542C562 543 622 550 690 565" stroke="#CF9918" stroke-opacity="0.24" stroke-width="10" stroke-linecap="round"/>
  <path d="M654 404L687 385" stroke="#241E18" stroke-width="10" stroke-linecap="round"/>
  <path d="M666 430L696 412" stroke="#241E18" stroke-width="10" stroke-linecap="round"/>
  <path d="M188 561C188 534 210 512 237 512H789C816 512 838 534 838 561V572C838 599 816 621 789 621H237C210 621 188 599 188 572V561Z" fill="#B8C4CA" stroke="#241E18" stroke-width="16" stroke-linejoin="round"/>
</svg>

