<svg width="1024" height="1024" viewBox="0 0 1024 1024" fill="none" xmlns="http://www.w3.org/2000/svg" role="img" aria-label="Butr logo refined concept 2">
  <rect width="1024" height="1024" fill="#FFFFFF"/>
  <ellipse cx="500" cy="686" rx="324" ry="56" fill="#D6D6D6"/>
  <path d="M160 530C160 469 210 419 271 419H742C803 419 853 469 853 530V605C853 659 809 703 755 703H258C204 703 160 659 160 605V530Z" fill="#FAF1C8" stroke="#26211B" stroke-width="18" stroke-linejoin="round"/>
  <path d="M202 594C255 612 339 625 428 630C529 635 620 632 707 622C748 618 783 611 810 603" stroke="#E1B049" stroke-opacity="0.42" stroke-width="16" stroke-linecap="round"/>
  <path d="M220 625C291 651 396 665 513 665C624 665 717 652 773 630" stroke="#FFF7D0" stroke-width="14" stroke-linecap="round"/>
  <path d="M262 440C262 407 289 380 322 380H669C702 380 729 407 729 440V589C729 622 702 649 669 649H322C289 649 262 622 262 589V440Z" fill="#FFD84D" stroke="#26211B" stroke-width="18" stroke-linejoin="round"/>
  <path d="M284 431C337 409 394 399 459 395C546 390 620 401 699 421" stroke="#FFF7C8" stroke-width="14" stroke-linecap="round"/>
  <path d="M292 492C349 477 411 471 475 470C553 469 611 478 685 497" stroke="#FFF2B3" stroke-width="11" stroke-linecap="round"/>
  <path d="M294 553C359 541 424 539 490 540C560 541 622 548 680 562" stroke="#D29F18" stroke-opacity="0.24" stroke-width="10" stroke-linecap="round"/>
  <path d="M652 401L684 382" stroke="#26211B" stroke-width="10" stroke-linecap="round"/>
  <path d="M664 426L694 408" stroke="#26211B" stroke-width="10" stroke-linecap="round"/>
  <path d="M188 562C188 535 210 513 237 513H789C816 513 838 535 838 562V572C838 599 816 621 789 621H237C210 621 188 599 188 572V562Z" fill="#B4C0C6" stroke="#26211B" stroke-width="16" stroke-linejoin="round"/>
</svg>

