<svg width="1024" height="1024" viewBox="0 0 1024 1024" fill="none" xmlns="http://www.w3.org/2000/svg" role="img" aria-label="Butr logo refined concept 3">
  <rect width="1024" height="1024" fill="#FFFFFF"/>
  <ellipse cx="508" cy="684" rx="330" ry="58" fill="#D8D8D8"/>
  <path d="M162 526C162 466 211 418 272 418H742C803 418 852 466 852 526V604C852 659 807 704 752 704H262C207 704 162 659 162 604V526Z" fill="#FAF2CB" stroke="#241E18" stroke-width="20" stroke-linejoin="round"/>
  <path d="M196 594C255 615 341 629 434 634C541 640 628 636 716 625C758 620 793 613 821 605" stroke="#DDA93A" stroke-opacity="0.42" stroke-width="18" stroke-linecap="round"/>
  <path d="M220 628C293 656 399 670 517 670C629 670 722 657 777 635" stroke="#FFF7CF" stroke-width="16" stroke-linecap="round"/>
  <path d="M270 442C270 410 296 384 328 384H678C710 384 736 410 736 442V590C736 622 710 648 678 648H328C296 648 270 622 270 590V442Z" fill="#FFE156" stroke="#241E18" stroke-width="20" stroke-linejoin="round"/>
  <path d="M290 430C346 407 404 397 474 393C553 389 627 400 705 423" stroke="#FFF7C9" stroke-width="15" stroke-linecap="round"/>
  <path d="M298 494C359 478 420 472 486 471C558 470 617 479 692 500" stroke="#FFF0A7" stroke-width="12" stroke-linecap="round"/>
  <path d="M299 556C365 543 426 541 495 542C561 543 621 550 687 565" stroke="#CF9917" stroke-opacity="0.24" stroke-width="10" stroke-linecap="round"/>
  <path d="M654 404L687 384" stroke="#241E18" stroke-width="10" stroke-linecap="round"/>
  <path d="M666 430L696 411" stroke="#241E18" stroke-width="10" stroke-linecap="round"/>
  <path d="M186 560C186 532 209 509 237 509H787C815 509 838 532 838 560V574C838 602 815 625 787 625H237C209 625 186 602 186 574V560Z" fill="#B7C4CA" stroke="#241E18" stroke-width="18" stroke-linejoin="round"/>
  <path d="M188 573H836" stroke="#241E18" stroke-width="18" stroke-linecap="round"/>
</svg>

