<svg width="1024" height="1024" viewBox="0 0 1024 1024" fill="none" xmlns="http://www.w3.org/2000/svg" role="img" aria-label="Butr logo refined concept 1">
  <rect width="1024" height="1024" fill="#FFFFFF"/>
  <ellipse cx="512" cy="678" rx="332" ry="58" fill="#D9D9D9"/>
  <path d="M172 520C172 462 220 416 278 416H750C808 416 856 462 856 520V602C856 657 811 702 756 702H268C213 702 168 657 168 602V520H172Z" fill="#F9F1C9" stroke="#2B241B" stroke-width="18" stroke-linejoin="round"/>
  <path d="M214 575C250 585 313 596 385 601C455 605 547 605 617 599C694 593 754 582 796 569" stroke="#E4B03E" stroke-opacity="0.48" stroke-width="18" stroke-linecap="round"/>
  <path d="M236 612C294 635 388 646 506 646C620 646 714 634 770 611" stroke="#FFF6D0" stroke-width="14" stroke-linecap="round"/>
  <path d="M272 444C272 412 298 386 330 386H662C694 386 720 412 720 444V588C720 620 694 646 662 646H330C298 646 272 620 272 588V444Z" fill="#FFE15A" stroke="#2B241B" stroke-width="18" stroke-linejoin="round"/>
  <path d="M292 435C341 413 389 404 451 400C529 396 612 406 688 425" stroke="#FFF6BE" stroke-width="14" stroke-linecap="round"/>
  <path d="M300 493C356 477 411 471 472 470C530 469 604 478 680 497" stroke="#FFF1A6" stroke-width="12" stroke-linecap="round"/>
  <path d="M302 550C366 536 424 533 487 534C549 535 609 542 678 557" stroke="#D8A41F" stroke-opacity="0.26" stroke-width="10" stroke-linecap="round"/>
  <path d="M648 405L680 386" stroke="#2B241B" stroke-width="10" stroke-linecap="round"/>
  <path d="M663 428L692 410" stroke="#2B241B" stroke-width="10" stroke-linecap="round"/>
  <path d="M198 538C198 512 221 490 248 490H776C803 490 826 512 826 538V548C826 574 803 596 776 596H248C221 596 198 574 198 548V538Z" fill="#B9C7CD" stroke="#2B241B" stroke-width="16" stroke-linejoin="round"/>
  <path d="M190 556H834" stroke="#2B241B" stroke-width="16" stroke-linecap="round"/>
</svg>

