<svg width="1024" height="1024" viewBox="0 0 1024 1024" fill="none" xmlns="http://www.w3.org/2000/svg" role="img" aria-label="Butr logo refined concept 4">
  <rect width="1024" height="1024" fill="#FFFFFF"/>
  <ellipse cx="510" cy="686" rx="328" ry="54" fill="#D6D6D6"/>
  <path d="M168 530C168 470 217 420 277 420H747C807 420 856 470 856 530V604C856 658 812 702 758 702H266C212 702 168 658 168 604V530Z" fill="#FBF1C8" stroke="#2A231C" stroke-width="18" stroke-linejoin="round"/>
  <path d="M208 596C267 615 350 628 440 633C545 638 635 634 719 623C760 618 795 611 822 603" stroke="#E3AF43" stroke-opacity="0.38" stroke-width="16" stroke-linecap="round"/>
  <path d="M226 626C298 652 403 666 518 666C628 666 721 654 777 631" stroke="#FFF8CF" stroke-width="14" stroke-linecap="round"/>
  <path d="M274 442C274 410 300 384 332 384H676C708 384 734 410 734 442V590C734 622 708 648 676 648H332C300 648 274 622 274 590V442Z" fill="#FFD84D" stroke="#2A231C" stroke-width="18" stroke-linejoin="round"/>
  <path d="M292 431C346 408 406 398 474 394C551 390 626 400 701 421" stroke="#FFF8C9" stroke-width="14" stroke-linecap="round"/>
  <path d="M300 494C359 479 420 473 486 472C556 471 616 480 692 500" stroke="#FFF1AA" stroke-width="11" stroke-linecap="round"/>
  <path d="M302 555C368 542 428 540 494 541C562 542 623 549 688 564" stroke="#D39D1B" stroke-opacity="0.24" stroke-width="10" stroke-linecap="round"/>
  <path d="M654 404L685 385" stroke="#2A231C" stroke-width="10" stroke-linecap="round"/>
  <path d="M666 430L696 412" stroke="#2A231C" stroke-width="10" stroke-linecap="round"/>
  <path d="M188 561C188 534 210 512 237 512H789C816 512 838 534 838 561V572C838 599 816 621 789 621H237C210 621 188 599 188 572V561Z" fill="#B9C5CB" stroke="#2A231C" stroke-width="16" stroke-linejoin="round"/>
</svg>

