<svg width="640" height="192" viewBox="0 0 640 192" fill="none" xmlns="http://www.w3.org/2000/svg" role="img" aria-label="Butr logo">
  <rect width="640" height="192" rx="36" fill="#FFFDF8"/>
  <g transform="translate(36 24)">
    <rect x="0" y="0" width="144" height="144" rx="36" fill="url(#lockupFill)"/>
    <path d="M24 36C38 26 56 21 72 21C88 21 104 26 120 36" stroke="#FFF9CB" stroke-width="10" stroke-linecap="round"/>
    <path d="M25 78C41 68 57 64 72 64C88 64 104 68 119 78" stroke="#FFF6B7" stroke-width="8" stroke-linecap="round" opacity="0.75"/>
    <path d="M34 108C46 103 59 100 72 100C86 100 99 103 110 108" stroke="#D3A21C" stroke-width="8" stroke-linecap="round" opacity="0.26"/>
    <defs>
      <linearGradient id="lockupFill" x1="18" y1="18" x2="126" y2="126" gradientUnits="userSpaceOnUse">
        <stop stop-color="#FFF8C7"/>
        <stop offset="0.58" stop-color="#FFD84D"/>
        <stop offset="1" stop-color="#E3B62A"/>
      </linearGradient>
    </defs>
  </g>
  <g transform="translate(220 58)">
    <text x="0" y="60" fill="#1E1B16" font-family="Inter, ui-sans-serif, system-ui, -apple-system, BlinkMacSystemFont, sans-serif" font-size="72" font-weight="700" letter-spacing="-0.08em">Butr</text>
    <text x="2" y="108" fill="#756B5E" font-family="Inter, ui-sans-serif, system-ui, -apple-system, BlinkMacSystemFont, sans-serif" font-size="24" font-weight="500" letter-spacing="0.01em">smooth investing, sharper decisions</text>
  </g>
</svg>
