<svg width="256" height="256" viewBox="0 0 256 256" fill="none" xmlns="http://www.w3.org/2000/svg" role="img" aria-label="Butr butter mark">
  <defs>
    <linearGradient id="butterFill" x1="56" y1="52" x2="204" y2="200" gradientUnits="userSpaceOnUse">
      <stop stop-color="#FFF8C7"/>
      <stop offset="0.58" stop-color="#FFD84D"/>
      <stop offset="1" stop-color="#E3B62A"/>
    </linearGradient>
    <linearGradient id="butterEdge" x1="72" y1="68" x2="188" y2="184" gradientUnits="userSpaceOnUse">
      <stop stop-color="#FFFDF0" stop-opacity="0.95"/>
      <stop offset="1" stop-color="#B88810" stop-opacity="0.2"/>
    </linearGradient>
    <filter id="shadow" x="40" y="44" width="176" height="176" filterUnits="userSpaceOnUse" color-interpolation-filters="sRGB">
      <feDropShadow dx="0" dy="12" stdDeviation="12" flood-color="#2A2116" flood-opacity="0.12"/>
    </filter>
  </defs>
  <g filter="url(#shadow)">
    <rect x="48" y="60" width="160" height="136" rx="40" fill="url(#butterFill)"/>
    <path d="M78 86C93 74 112 68 128 68C145 68 161 74 177 86" stroke="url(#butterEdge)" stroke-width="12" stroke-linecap="round"/>
    <path d="M74 126C92 114 111 110 128 110C146 110 165 114 182 126" stroke="#FFF6B7" stroke-opacity="0.55" stroke-width="10" stroke-linecap="round"/>
    <path d="M86 158C100 152 114 149 128 149C144 149 160 152 170 158" stroke="#D5A521" stroke-opacity="0.28" stroke-width="10" stroke-linecap="round"/>
    <path d="M78 100C78 89 87 80 98 80H158C169 80 178 89 178 100V152C178 163 169 172 158 172H98C87 172 78 163 78 152V100Z" stroke="#8E6A11" stroke-opacity="0.12" stroke-width="2"/>
    <path d="M100 88C100 84 103 81 107 81H149C153 81 156 84 156 88C156 92 153 95 149 95H107C103 95 100 92 100 88Z" fill="#FFFDF0" fill-opacity="0.55"/>
  </g>
</svg>
